<?xml version="1.0" standalone="no"?>
<!DOCTYPE svg PUBLIC "-//W3C//DTD SVG 20010904//EN"
 "http://www.w3.org/TR/2001/REC-SVG-20010904/DTD/svg10.dtd">
<svg version="1.0" xmlns="http://www.w3.org/2000/svg"
 width="1250.000000pt" height="250.000000pt" viewBox="0 0 1250.000000 250.000000"
 preserveAspectRatio="xMidYMid meet">
<metadata>
Created by potrace 1.16, written by Peter Selinger 2001-2019
</metadata>
<g transform="translate(0.000000,250.000000) scale(0.100000,-0.100000)"
fill="#000000" stroke="none">
<path d="M3770 1742 c0 -4 34 -84 75 -177 60 -134 75 -177 70 -201 -8 -44 -36
-67 -73 -59 -27 6 -29 4 -25 -19 9 -44 78 -46 106 -2 13 20 187 450 187 462 0
3 -12 4 -26 2 -24 -3 -31 -16 -80 -147 -30 -80 -56 -146 -58 -148 -1 -2 -32
64 -67 147 -55 131 -66 150 -86 150 -13 0 -23 -4 -23 -8z"/>
<path d="M6760 1505 l0 -245 155 0 155 0 0 -70 c0 -63 2 -70 20 -70 19 0 20 7
20 100 0 82 -3 100 -15 100 -13 0 -15 31 -15 215 l0 215 -30 0 -30 0 0 -215 0
-215 -100 0 -100 0 0 215 0 215 -30 0 -30 0 0 -245z"/>
<path d="M4462 1595 c-31 -26 -32 -26 -32 -6 0 14 -6 21 -20 21 -19 0 -20 -7
-20 -245 l0 -245 25 0 c25 0 25 1 25 81 l0 81 25 -16 c32 -21 63 -20 101 3 46
28 68 83 68 171 0 107 -35 165 -106 176 -27 5 -40 1 -66 -21z m85 -40 c42 -30
56 -143 25 -205 -19 -39 -63 -61 -90 -44 -82 50 -59 264 28 264 9 0 25 -7 37
-15z"/>
<path d="M4764 1613 c-12 -2 -31 -14 -42 -26 -23 -26 -38 -67 -23 -67 5 0 16
-3 25 -6 10 -4 16 -1 16 9 0 23 39 47 77 47 40 0 65 -24 61 -59 -3 -23 -9 -27
-62 -38 -81 -16 -102 -27 -122 -64 -20 -40 -14 -104 14 -131 32 -33 91 -34
135 -4 46 31 47 31 47 6 0 -14 7 -20 23 -20 l22 0 -3 143 c-2 78 -9 153 -15
167 -20 42 -76 58 -153 43z m113 -220 c-6 -56 -41 -93 -87 -93 -40 0 -67 40
-54 78 8 22 21 30 69 44 33 9 64 17 69 17 5 1 6 -20 3 -46z"/>
<path d="M5540 1607 c-78 -39 -105 -204 -49 -295 42 -70 134 -80 183 -21 24
28 43 75 35 83 -2 2 -14 7 -26 10 -18 6 -23 3 -23 -12 0 -11 -10 -31 -21 -46
-28 -36 -73 -33 -102 6 -28 37 -35 131 -14 181 28 66 103 76 129 17 10 -23 17
-28 33 -24 28 9 28 8 11 47 -24 58 -98 84 -156 54z"/>
<path d="M6340 1602 c-42 -20 -70 -69 -49 -83 21 -13 39 -11 39 4 0 24 35 47
72 47 41 0 71 -28 66 -62 -3 -20 -12 -25 -68 -36 -76 -15 -107 -33 -121 -70
-15 -38 -4 -101 21 -126 30 -30 109 -29 142 2 30 27 38 28 38 2 0 -14 7 -20
23 -20 22 0 22 0 19 142 -2 81 -9 154 -15 168 -24 49 -102 65 -167 32z m127
-209 c-6 -54 -41 -93 -84 -93 -51 0 -80 53 -50 93 10 13 92 42 131 46 5 1 6
-20 3 -46z"/>
<path d="M7223 1600 c-44 -26 -65 -72 -71 -151 -10 -145 84 -235 193 -183 29
13 76 77 65 87 -3 3 -15 8 -27 11 -16 5 -23 3 -23 -7 0 -7 -10 -23 -23 -35
-42 -39 -99 -24 -123 33 -27 64 -26 65 96 65 61 0 110 4 110 9 0 36 -23 116
-41 141 -38 50 -102 63 -156 30z"/>
<path d="M7552 1595 c-31 -26 -32 -26 -32 -6 0 14 -6 21 -20 21 -19 0 -20 -7
-20 -246 l0 -245 23 3 c20 3 22 9 24 63 1 33 2 68 2 78 1 16 3 16 31 2 39 -20
58 -19 98 5 59 36 86 147 58 242 -18 63 -49 97 -98 104 -27 5 -40 1 -66 -21z
m85 -40 c42 -30 56 -143 25 -205 -19 -39 -63 -61 -90 -44 -82 50 -59 264 28
264 9 0 25 -7 37 -15z"/>
<path d="M8393 1614 c-38 -9 -96 -94 -64 -94 5 0 16 -3 25 -6 10 -4 16 -1 16
8 0 25 35 48 72 48 41 0 71 -28 66 -62 -3 -20 -12 -25 -68 -36 -105 -21 -137
-55 -127 -136 11 -79 90 -110 160 -62 46 31 47 31 47 6 0 -14 7 -20 23 -20 22
0 22 1 19 118 -3 155 -9 196 -31 216 -19 17 -98 28 -138 20z m114 -221 c-6
-55 -41 -93 -87 -93 -31 0 -60 30 -60 62 0 33 61 66 144 77 5 0 6 -20 3 -46z"/>
<path d="M4150 1435 c0 -168 1 -175 20 -175 18 0 20 7 21 78 1 42 1 81 0 85
-1 5 6 7 16 5 11 -2 33 -34 58 -85 35 -75 42 -83 67 -83 l28 0 -39 78 c-22 43
-46 84 -55 91 -13 11 -14 16 -4 29 7 8 20 33 29 56 11 27 23 42 38 44 32 5 30
52 -2 52 -30 0 -52 -25 -72 -80 -18 -51 -32 -70 -51 -70 -11 0 -14 18 -14 75
0 68 -2 75 -20 75 -19 0 -20 -7 -20 -175z"/>
<path d="M5170 1435 l0 -175 25 0 c24 0 25 2 25 75 l0 75 65 0 65 0 0 -75 c0
-73 1 -75 25 -75 l25 0 0 175 0 175 -25 0 c-24 0 -25 -2 -25 -75 l0 -75 -65 0
-65 0 0 75 c0 73 -1 75 -25 75 l-25 0 0 -175z"/>
<path d="M5760 1434 l0 -176 90 4 c103 4 126 18 137 81 13 81 -36 127 -137
127 l-50 0 0 70 c0 63 -2 70 -20 70 -19 0 -20 -7 -20 -176z"/>
<path d="M6050 1435 c0 -168 1 -175 20 -175 18 0 20 7 20 86 0 76 2 85 18 82
10 -2 33 -35 57 -85 32 -67 44 -83 63 -83 12 0 22 5 22 10 0 18 -68 146 -84
159 -13 11 -14 16 -4 29 7 8 20 33 29 56 11 27 23 42 38 44 32 5 30 52 -2 52
-30 0 -52 -25 -72 -80 -18 -51 -32 -70 -51 -70 -11 0 -14 18 -14 75 0 68 -2
75 -20 75 -19 0 -20 -7 -20 -175z"/>
<path d="M7790 1435 c0 -175 0 -175 23 -175 21 0 22 3 19 71 -2 38 -1 77 2 85
11 29 43 -4 77 -81 27 -62 37 -75 56 -75 13 0 23 5 23 10 0 18 -68 146 -84
160 -15 11 -15 15 -1 30 8 9 21 34 28 56 10 27 21 40 35 42 33 5 31 52 -1 52
-30 0 -52 -25 -72 -80 -18 -51 -32 -70 -51 -70 -11 0 -14 18 -14 75 0 68 -2
75 -20 75 -19 0 -20 -7 -20 -175z"/>
<path d="M8030 1436 l0 -176 80 0 c43 0 90 5 103 11 48 22 64 112 27 149 -19
19 -19 22 -5 43 23 32 19 81 -9 114 -23 26 -31 28 -110 32 l-86 3 0 -176z"/>
<path d="M7796 940 c-40 -12 -91 -72 -110 -127 -20 -59 -20 -164 -1 -231 36
-121 137 -172 240 -122 67 32 111 131 64 143 -15 4 -22 -1 -30 -19 -5 -14 -9
-29 -9 -33 0 -20 -52 -54 -92 -58 -69 -8 -117 41 -133 135 l-7 42 76 0 76 0 0
30 0 30 -74 0 -74 0 9 41 c14 61 36 97 69 114 61 32 124 9 150 -55 14 -34 19
-36 45 -17 17 13 17 15 -5 55 -38 67 -115 95 -194 72z"/>
<path d="M3790 932 c0 -4 27 -54 60 -110 33 -57 60 -108 60 -114 0 -12 -48
-99 -102 -182 -21 -33 -38 -63 -38 -68 0 -4 13 -8 28 -8 25 0 34 11 87 101 67
116 55 118 131 -17 44 -79 49 -84 80 -84 l33 0 -60 103 c-103 173 -100 142
-25 267 36 59 66 111 66 114 0 3 -11 6 -24 6 -20 0 -35 -17 -81 -91 l-58 -90
-51 90 c-45 80 -54 91 -78 91 -16 0 -28 -3 -28 -8z"/>
<path d="M6410 695 l0 -245 95 0 c112 0 156 14 185 62 17 26 20 45 17 92 -3
50 -8 63 -34 86 l-30 27 24 27 c44 52 19 163 -43 186 -14 6 -68 10 -120 10
l-94 0 0 -245z m210 165 c11 -11 20 -33 20 -50 0 -50 -30 -70 -105 -70 l-65 0
0 70 0 70 65 0 c52 0 69 -4 85 -20z m17 -203 c12 -12 18 -33 18 -63 0 -66 -26
-84 -116 -84 l-69 0 0 86 0 86 75 -4 c54 -2 79 -8 92 -21z"/>
<path d="M4248 791 c-31 -25 -38 -26 -38 -6 0 8 -9 15 -20 15 -19 0 -20 -7
-20 -245 l0 -245 25 0 c25 0 25 1 25 81 l0 80 22 -15 c47 -33 122 -6 150 55
39 83 29 205 -20 260 -36 40 -88 48 -124 20z m79 -46 c43 -30 57 -145 24 -205
-21 -40 -63 -60 -89 -44 -60 37 -70 181 -16 239 26 29 50 32 81 10z"/>
<path d="M4865 803 c-27 -7 -54 -32 -73 -68 -23 -43 -22 -179 1 -223 22 -41
72 -72 116 -72 39 0 96 50 107 94 7 30 7 31 -22 40 -18 5 -22 2 -27 -23 -13
-65 -81 -82 -120 -29 -28 37 -35 131 -14 181 28 66 108 76 130 17 12 -31 22
-36 46 -21 11 7 10 15 -4 45 -26 54 -75 75 -140 59z"/>
<path d="M6978 791 c-31 -25 -38 -26 -38 -6 0 8 -9 15 -20 15 -19 0 -20 -7
-20 -245 l0 -245 25 0 c25 0 25 1 25 80 l0 80 34 -17 c43 -20 80 -11 117 28
66 71 61 239 -9 302 -32 29 -82 32 -114 8z m86 -54 c68 -68 29 -255 -51 -245
-100 12 -93 268 7 268 12 0 31 -11 44 -23z"/>
<path d="M8443 803 c-38 -7 -97 -93 -64 -93 5 0 16 -3 25 -6 10 -4 16 -1 16 8
0 24 34 48 66 48 44 0 76 -26 72 -58 -3 -25 -9 -28 -68 -40 -35 -7 -75 -19
-88 -28 -75 -49 -39 -194 48 -194 32 0 100 29 100 42 0 4 5 8 10 8 6 0 10 -9
10 -20 0 -14 7 -20 23 -20 22 0 22 0 19 142 -2 81 -9 154 -15 168 -20 42 -76
58 -154 43z m114 -220 c-6 -54 -41 -93 -84 -93 -51 0 -80 54 -50 92 10 13 85
40 131 47 5 0 6 -20 3 -46z"/>
<path d="M9253 791 c-44 -27 -65 -73 -71 -152 -10 -145 84 -235 193 -183 18 8
41 31 51 50 17 30 17 36 4 44 -24 15 -34 11 -55 -23 -35 -56 -104 -46 -131 18
-26 63 -25 64 94 67 l107 3 -3 45 c-5 56 -28 107 -58 127 -39 25 -95 27 -131
4z"/>
<path d="M10183 790 c-50 -30 -67 -72 -67 -165 0 -124 39 -180 126 -180 43 0
53 4 79 32 26 30 47 79 38 87 -2 2 -14 7 -26 10 -18 6 -23 3 -23 -12 0 -28
-38 -72 -61 -72 -74 0 -115 119 -75 215 27 64 107 73 129 15 9 -24 16 -29 32
-24 29 9 28 9 10 49 -30 63 -101 83 -162 45z"/>
<path d="M11004 800 c-32 -13 -72 -67 -80 -106 -10 -55 1 -158 22 -193 35 -60
116 -78 175 -38 97 65 85 290 -17 333 -37 16 -69 17 -100 4z m93 -55 c43 -30
57 -145 24 -205 -23 -45 -62 -60 -99 -39 -42 23 -53 55 -50 138 3 66 6 76 31
97 32 28 63 30 94 9z"/>
<path d="M4480 625 l0 -175 25 0 c22 0 32 15 87 125 35 69 66 125 70 125 5 0
8 -56 8 -125 0 -123 0 -125 23 -125 l22 0 -3 175 -3 175 -24 0 c-22 0 -33 -16
-87 -125 -35 -69 -65 -125 -68 -125 -3 0 -4 56 -2 125 l4 125 -26 0 -26 0 0
-175z"/>
<path d="M5040 775 c0 -23 4 -25 45 -25 l45 0 0 -150 0 -150 25 0 25 0 0 150
0 150 48 0 c44 0 47 2 47 25 l0 25 -117 0 -118 0 0 -25z"/>
<path d="M5330 625 l0 -175 25 0 c22 0 32 15 87 125 35 69 66 125 70 125 5 0
8 -56 8 -125 0 -118 1 -125 20 -125 19 0 20 7 20 175 l0 175 -25 0 c-22 0 -33
-16 -89 -127 l-65 -128 0 128 -1 127 -25 0 -25 0 0 -175z"/>
<path d="M5684 790 c-33 -13 -54 -50 -54 -93 0 -31 7 -46 33 -72 27 -27 31
-36 21 -47 -6 -7 -26 -39 -44 -70 l-32 -58 30 0 c27 0 35 8 69 68 36 62 42 67
76 70 l37 3 0 -70 c0 -64 2 -71 20 -71 19 0 20 7 20 175 l0 175 -77 -1 c-43 0
-88 -4 -99 -9z"/>
<path d="M5940 625 l0 -175 25 0 c24 0 25 2 25 75 l0 75 65 0 65 0 0 -75 c0
-73 1 -75 25 -75 l25 0 0 175 0 175 -25 0 c-24 0 -25 -2 -25 -75 l0 -75 -65 0
-65 0 0 75 c0 73 -1 75 -25 75 l-25 0 0 -175z"/>
<path d="M6780 625 l0 -175 25 0 25 0 0 175 0 175 -25 0 -25 0 0 -175z"/>
<path d="M7210 625 l0 -175 25 0 c22 0 32 15 87 125 35 69 66 125 70 125 5 0
8 -56 8 -125 0 -118 1 -125 20 -125 19 0 20 7 20 175 l0 175 -25 0 c-22 0 -33
-16 -89 -127 -36 -71 -65 -123 -66 -118 -1 6 -1 63 0 128 l1 117 -25 0 -26 0
0 -175z"/>
<path d="M8080 625 l0 -175 74 0 c120 0 155 22 156 98 0 29 -6 48 -20 62 -19
19 -19 22 -5 43 25 36 19 84 -14 118 -28 27 -34 29 -110 29 l-81 0 0 -175z"/>
<path d="M8690 625 l0 -175 25 0 c24 0 25 2 25 75 l0 75 65 0 65 0 0 -75 c0
-73 1 -75 25 -75 l25 0 0 175 0 175 -25 0 c-24 0 -25 -2 -25 -75 l0 -75 -65 0
-65 0 0 75 c0 73 -1 75 -25 75 l-25 0 0 -175z"/>
<path d="M9000 624 l0 -175 23 3 c22 3 22 5 22 151 l0 147 58 0 c54 0 57 1 57
25 0 25 -1 25 -80 25 l-80 0 0 -176z"/>
<path d="M9528 653 c-3 -145 -3 -148 -25 -151 -17 -3 -23 -10 -23 -28 0 -20 5
-24 30 -24 17 0 39 9 50 20 18 18 20 33 20 150 l0 130 65 0 65 0 0 -150 0
-150 25 0 25 0 0 175 0 175 -115 0 -114 0 -3 -147z"/>
<path d="M9840 624 l0 -176 91 4 c85 3 92 5 115 31 17 20 24 40 24 68 0 75
-44 109 -141 109 l-49 0 0 70 c0 63 -2 70 -20 70 -19 0 -20 -7 -20 -176z"/>
<path d="M10405 624 l0 -176 94 4 c87 4 95 6 117 32 45 51 24 144 -37 165 -18
6 -54 11 -80 11 l-49 0 0 70 c0 66 -1 70 -22 70 -23 0 -23 0 -23 -176z"/>
<path d="M10700 625 c0 -168 1 -175 20 -175 18 0 20 7 20 86 0 76 2 85 18 82
10 -2 33 -35 57 -85 32 -67 44 -83 63 -83 12 0 22 5 22 10 0 18 -68 146 -84
159 -13 11 -14 16 -4 29 7 8 20 33 29 56 11 27 23 42 38 44 32 5 30 52 -2 52
-29 0 -49 -22 -71 -80 -21 -53 -33 -70 -52 -70 -11 0 -14 18 -14 75 0 68 -2
75 -20 75 -19 0 -20 -7 -20 -175z"/>
</g>
</svg>
